<?xml version="1.0" encoding="UTF-8"?>
<svg xmlns="http://www.w3.org/2000/svg" id="Layer_1" data-name="Layer 1" viewBox="0 0 24 24">
  <path d="M24,15c-.028,0-2.812,.204-5.328,2.249l4.54,4.539-1.414,1.414-4.54-4.539c-2.05,2.521-2.258,5.309-2.258,5.338h-2c0-.626,.331-2.852,1.695-5.15l-1.28-1.279,4.168-4.165,1.28,1.279c2.292-1.356,4.512-1.686,5.137-1.686v2Zm-1.377-9.457l1.348-4.11c.185-.841-.564-1.59-1.405-1.405l-4.11,1.348L5.137,14.686c-2.292-1.356-4.512-1.686-5.137-1.686v2c.028,0,2.812,.204,5.328,2.249L.788,21.788l1.414,1.414,4.54-4.539c2.05,2.521,2.258,5.309,2.258,5.338h2c0-.626-.331-2.852-1.695-5.15L22.623,5.543ZM1.377,5.543l5.04,5.036,4.168-4.165L5.543,1.377,1.433,.028C.592-.157-.157,.592,.028,1.433L1.377,5.543Z"/>
</svg>
